<svg width="200" height="200" viewBox="0 0 200 200" fill="none" xmlns="http://www.w3.org/2000/svg">
<g clip-path="url(#clip0_7_26)">
<rect width="200" height="200" fill="url(#paint0_radial_7_26)"/>
<rect width="200" height="200" fill="black"/>
<line x1="128.465" y1="-135.692" x2="-65.9955" y2="58.7687" stroke="#DDDDDD" stroke-width="1.84984" stroke-linecap="round" stroke-dasharray="61.66 30.83"/>
<line x1="112.769" y1="-98.1951" x2="-81.6919" y2="96.2657" stroke="#DDDDDD" stroke-width="1.84984" stroke-linecap="round" stroke-dasharray="61.66 30.83"/>
<line x1="141.982" y1="-105.607" x2="-52.0432" y2="88.4175" stroke="#DDDDDD" stroke-width="1.84984" stroke-linecap="round" stroke-dasharray="61.66 30.83"/>
<line x1="126.721" y1="-68.5463" x2="-67.3036" y2="125.478" stroke="#DDDDDD" stroke-width="1.84984" stroke-linecap="round" stroke-dasharray="61.66 30.83"/>
<line x1="174.682" y1="-94.707" x2="-19.3424" y2="99.3177" stroke="#DDDDDD" stroke-width="1.84984" stroke-linecap="round" stroke-dasharray="61.66 30.83"/>
<line x1="137.185" y1="-35.4095" x2="-56.4033" y2="158.179" stroke="#DDDDDD" stroke-width="1.84984" stroke-linecap="round" stroke-dasharray="61.66 30.83"/>
<line x1="193.867" y1="-70.2904" x2="-0.593929" y2="124.17" stroke="#DDDDDD" stroke-width="1.84984" stroke-linecap="round" stroke-dasharray="61.66 30.83"/>
<line x1="178.17" y1="-32.7935" x2="-16.2903" y2="161.667" stroke="#DDDDDD" stroke-width="1.84984" stroke-linecap="round" stroke-dasharray="61.66 30.83"/>
<line x1="207.383" y1="-40.2056" x2="13.3584" y2="153.819" stroke="#DDDDDD" stroke-width="1.84984" stroke-linecap="round" stroke-dasharray="61.66 30.83"/>
<line x1="192.123" y1="-3.14474" x2="-1.90206" y2="190.88" stroke="#DDDDDD" stroke-width="1.84984" stroke-linecap="round" stroke-dasharray="61.66 30.83"/>
<line x1="240.084" y1="-29.3054" x2="46.0591" y2="164.719" stroke="#DDDDDD" stroke-width="1.84984" stroke-linecap="round" stroke-dasharray="61.66 30.83"/>
<line x1="202.587" y1="29.9921" x2="8.99824" y2="223.581" stroke="#DDDDDD" stroke-width="1.84984" stroke-linecap="round" stroke-dasharray="61.66 30.83"/>
<line x1="257.088" y1="-2.70872" x2="62.6275" y2="191.752" stroke="#DDDDDD" stroke-width="1.84984" stroke-linecap="round" stroke-dasharray="61.66 30.83"/>
<line x1="240.956" y1="35.2242" x2="46.4952" y2="229.685" stroke="#DDDDDD" stroke-width="1.84984" stroke-linecap="round" stroke-dasharray="61.66 30.83"/>
<line x1="270.169" y1="27.812" x2="76.144" y2="221.837" stroke="#DDDDDD" stroke-width="1.84984" stroke-linecap="round" stroke-dasharray="61.66 30.83"/>
<line x1="254.908" y1="64.8729" x2="60.8835" y2="258.898" stroke="#DDDDDD" stroke-width="1.84984" stroke-linecap="round" stroke-dasharray="61.66 30.83"/>
<line x1="302.869" y1="38.7123" x2="109.281" y2="232.301" stroke="#DDDDDD" stroke-width="1.84984" stroke-linecap="round" stroke-dasharray="61.66 30.83"/>
<line x1="265.809" y1="97.5737" x2="71.7839" y2="291.598" stroke="#DDDDDD" stroke-width="1.84984" stroke-linecap="round" stroke-dasharray="61.66 30.83"/>
<line x1="322.49" y1="62.6929" x2="128.029" y2="257.154" stroke="#DDDDDD" stroke-width="1.84984" stroke-linecap="round" stroke-dasharray="61.66 30.83"/>
<line x1="306.357" y1="100.626" x2="111.897" y2="295.087" stroke="#DDDDDD" stroke-width="1.84984" stroke-linecap="round" stroke-dasharray="61.66 30.83"/>
<line x1="335.57" y1="93.2136" x2="141.545" y2="287.238" stroke="#DDDDDD" stroke-width="1.84984" stroke-linecap="round" stroke-dasharray="61.66 30.83"/>
<line x1="320.31" y1="130.275" x2="126.285" y2="324.299" stroke="#DDDDDD" stroke-width="1.84984" stroke-linecap="round" stroke-dasharray="61.66 30.83"/>
<line x1="368.271" y1="104.114" x2="174.682" y2="297.703" stroke="#DDDDDD" stroke-width="1.84984" stroke-linecap="round" stroke-dasharray="61.66 30.83"/>
<line x1="331.21" y1="162.975" x2="137.185" y2="357" stroke="#DDDDDD" stroke-width="1.84984" stroke-linecap="round" stroke-dasharray="61.66 30.83"/>
<ellipse cx="99.5" cy="251.5" rx="124.5" ry="95.5" fill="#FEFBFF"/>
<ellipse cx="99.5" cy="254.5" rx="124.5" ry="95.5" fill="black"/>
<path d="M78 159.471L59 138C59.4222 140.647 60.2667 150.788 60.2667 154.176C60.2667 157.565 64.0667 165.471 65.9667 169L76.1 168L78 159.471Z" fill="#949494"/>
<path d="M97.7851 168.601C105.538 169.348 110.82 169.573 118.772 167.651C119.009 170.139 119.513 171.912 120.401 174.386L120.774 175.428L121.856 175.664L132.454 177.981L133.503 178.211L134.274 177.463C135.045 176.715 135.813 176.015 136.655 175.249C138.227 173.819 140.053 172.156 142.633 169.508C145.854 173.573 148.963 176.051 152.43 177.775C155.751 179.427 159.366 180.356 163.435 181.402C164.108 181.575 164.794 181.751 165.493 181.935L172.803 183.851L167.398 178.57C160.497 171.826 155.67 166.154 152.527 160.198C149.408 154.289 147.891 147.992 147.797 139.921C147.697 131.263 145.71 124.176 141.606 117.869C137.529 111.603 131.448 106.241 123.392 100.872C115.091 95.3407 108.701 94.1918 103.221 93.6731C102.405 93.5958 101.625 93.5319 100.874 93.4704C96.5652 93.1176 93.2185 92.8436 89.555 90.5743C81.2593 85.4355 79.6062 76.6709 78.6883 71.8049C78.6379 71.5373 78.5896 71.2815 78.5426 71.0388C77.5731 66.0319 77.0827 60.6694 76.7112 55.3887C76.6088 53.9331 76.5152 52.4781 76.4226 51.0385C76.1824 47.3047 75.949 43.6753 75.5861 40.4113C75.0564 35.6457 73.5403 31.4787 70.8826 27.9977C68.2263 24.5186 64.5173 21.8397 59.7804 19.9107C54.9435 17.941 49.2842 17.4458 44.3321 18.6512C39.3625 19.861 34.8963 22.8564 32.975 28.017C31.0882 33.0849 31.9449 38.1818 35.4926 42.7618C38.817 47.0535 44.4577 50.8521 52.2909 54.0032C55.8148 73.3031 57.4902 84.2421 57.687 102.409C55.8818 115.424 55.2736 123.108 57.0334 138.137C57.411 144.042 59.4158 147.725 62.4097 151.136C63.6737 152.576 65.1291 153.984 66.6562 155.462C66.8757 155.675 67.0968 155.889 67.319 156.104C69.1086 157.841 71.0391 159.753 73.0804 162.109L73.2208 162.271L73.3923 162.4L76.6145 164.816C76.8189 168.514 77.2791 171.225 78.9765 176.627L79.4166 178.028H80.8845H93.4697H94.7547L95.2888 176.859C96.6514 173.877 97.2369 171.711 97.7851 168.601Z" fill="white" stroke="black" stroke-width="4"/>
<path d="M73.5984 40.6323C72.6048 31.6942 67 25.5 59.0261 21.763C69.5 28 69.8446 32.1161 71 40.6323C71.6094 55.9548 72.2914 62.2927 73.5984 73C76.8474 87.8855 78 91 86.5 96C95 101 103.532 98.8169 115 104C131.249 112.426 145.5 124.5 145.798 139.944C145.605 123.269 138.18 113.13 122.283 102.537C106.386 91.9434 98.1064 98.2239 88.5019 92.2745C78.8974 86.3251 77.4522 75.9279 76.5791 71.419C74.592 61.1568 74.592 49.5704 73.5984 40.6323Z" fill="white"/>
<path d="M113 170L111.5 167L121 165V170H113Z" fill="#949494"/>
<ellipse cx="58.0277" cy="30.37" rx="2.71141" ry="2.06031" transform="rotate(23.8027 58.0277 30.37)" fill="black"/>
<path d="M61 52.5C59.4 53.3 55.6667 52.8333 54 52.5L55 56.5C56.3333 55.6667 59.4 53.7 61 52.5Z" fill="#5E4C59"/>
</g>
<defs>
<radialGradient id="paint0_radial_7_26" cx="0" cy="0" r="1" gradientUnits="userSpaceOnUse" gradientTransform="translate(100 100) rotate(90) scale(100)">
<stop stop-color="white"/>
<stop offset="1" stop-color="white" stop-opacity="0"/>
</radialGradient>
<clipPath id="clip0_7_26">
<rect width="200" height="200" fill="white"/>
</clipPath>
</defs>
</svg>
